<?xml version="1.0" encoding="UTF-8" standalone="no"?>
<!DOCTYPE svg PUBLIC "-//W3C//DTD SVG 1.1//EN"
 "http://www.w3.org/Graphics/SVG/1.1/DTD/svg11.dtd">
<!-- Generated by graphviz version 2.43.0 (0)
 -->
<!-- Title: %3 Pages: 1 -->
<svg width="468pt" height="260pt"
 viewBox="0.00 0.00 468.00 260.00" xmlns="http://www.w3.org/2000/svg" xmlns:xlink="http://www.w3.org/1999/xlink">
<g id="graph0" class="graph" transform="scale(1 1) rotate(0) translate(4 256)">
<title>%3</title>
<polygon fill="white" stroke="transparent" points="-4,4 -4,-256 464,-256 464,4 -4,4"/>
<!-- &#45;106818960896893682 -->
<g id="node1" class="node">
<title>&#45;106818960896893682</title>
<polygon fill="none" stroke="black" points="361.5,-252 98.5,-252 98.5,-216 361.5,-216 361.5,-252"/>
<text text-anchor="middle" x="230" y="-229" font-family="Helvetica,sans-Serif" font-size="20.00">MapPartitions(Projection)</text>
</g>
<!-- 3520013584416354518 -->
<g id="node2" class="node">
<title>3520013584416354518</title>
<polygon fill="none" stroke="black" points="458,-180 2,-180 2,-144 458,-144 458,-180"/>
<text text-anchor="middle" x="230" y="-157" font-family="Helvetica,sans-Serif" font-size="20.00">Projection(ArrowStringConversion, Distance)</text>
</g>
<!-- 3520013584416354518&#45;&gt;&#45;106818960896893682 -->
<g id="edge1" class="edge">
<title>3520013584416354518&#45;&gt;&#45;106818960896893682</title>
<path fill="none" stroke="black" d="M230,-180.3C230,-188.02 230,-197.29 230,-205.89"/>
<polygon fill="black" stroke="black" points="226.5,-205.9 230,-215.9 233.5,-205.9 226.5,-205.9"/>
</g>
<!-- 8380232784461579871 -->
<g id="node3" class="node">
<title>8380232784461579871</title>
<polygon fill="none" stroke="black" points="460,-108 0,-108 0,-72 460,-72 460,-108"/>
<text text-anchor="middle" x="230" y="-85" font-family="Helvetica,sans-Serif" font-size="20.00">ArrowStringConversion(FromMapProjectable)</text>
</g>
<!-- 8380232784461579871&#45;&gt;3520013584416354518 -->
<g id="edge2" class="edge">
<title>8380232784461579871&#45;&gt;3520013584416354518</title>
<path fill="none" stroke="black" d="M230,-108.3C230,-116.02 230,-125.29 230,-133.89"/>
<polygon fill="black" stroke="black" points="226.5,-133.9 230,-143.9 233.5,-133.9 226.5,-133.9"/>
</g>
<!-- &#45;3762793112962479339 -->
<g id="node4" class="node">
<title>&#45;3762793112962479339</title>
<polygon fill="none" stroke="black" points="338.5,-36 121.5,-36 121.5,0 338.5,0 338.5,-36"/>
<text text-anchor="middle" x="230" y="-13" font-family="Helvetica,sans-Serif" font-size="20.00">FromMapProjectable</text>
</g>
<!-- &#45;3762793112962479339&#45;&gt;8380232784461579871 -->
<g id="edge3" class="edge">
<title>&#45;3762793112962479339&#45;&gt;8380232784461579871</title>
<path fill="none" stroke="black" d="M230,-36.3C230,-44.02 230,-53.29 230,-61.89"/>
<polygon fill="black" stroke="black" points="226.5,-61.9 230,-71.9 233.5,-61.9 226.5,-61.9"/>
</g>
</g>
</svg>
